<svg width="1920" height="184" viewBox="0 0 1920 184" fill="none" xmlns="http://www.w3.org/2000/svg">
<path d="M1235.71 112.051C1299.58 123.825 1373.95 131.541 1510.4 112.951C1595.71 101.329 1665.66 91.6029 1726.34 84.538C1540.67 80.8811 1385.54 106.403 1235.71 112.051Z" fill="#44A9E1"/>
<path d="M912.192 96.0255C613.056 135.926 459.456 35.5626 326.08 91.1815C318.592 94.3023 309.76 97.1168 300.416 99.7972C342.912 102.573 387.648 107.054 435.2 114.157C847.488 175.826 839.424 97.2317 1122.37 111.744C1160.06 113.678 1197.7 113.487 1235.71 112.051C1150.14 96.2744 1083.46 73.1844 912.192 96.0255Z" fill="#66AABB" fill-opacity="0.866667"/>
<path d="M1726.34 84.538C1787.26 85.7442 1851.58 90.1861 1920 99.4335V72.8973C1863.55 71.2507 1802.37 75.7117 1726.34 84.538Z" fill="#44A9E1"/>
<path d="M1558.91 154.076C1421.5 126.257 1389.12 180.67 1231.49 155.282C1183.17 147.49 1143.23 147.586 1107.39 150.86C1288.51 169.757 1436.67 203.166 1595.26 169.795C1715.2 144.561 1830.46 144.656 1920 151.893V140.195C1634.69 109.983 1689.47 180.498 1558.91 154.076Z" fill="#80E6F9"/>
<path d="M18.304 162.922C125.12 160.758 238.784 168.34 363.52 170.369C356.416 169.335 349.568 168.531 342.272 167.363C218.944 147.586 105.984 151.932 18.304 162.922Z" fill="#80E6F9"/>
<path d="M714.112 152.851C587.072 169.699 471.168 172.131 363.456 170.369C627.712 208.565 757.824 149.73 879.808 168.569C966.656 181.991 1026.43 158.231 1107.39 150.84C993.088 138.932 865.792 132.747 714.112 152.851Z" fill="#80E6F9"/>
<path d="M0 163.496V165.449C6.016 164.587 11.968 163.707 18.304 162.922C12.16 163.037 6.08 163.305 0 163.496Z" fill="#32629E"/>
<path d="M342.208 167.363C349.504 168.531 356.352 169.355 363.456 170.369C471.168 172.131 587.072 169.699 714.112 152.851C865.792 132.728 993.088 138.932 1107.39 150.84C1143.23 147.566 1183.17 147.471 1231.49 155.263C1389.12 180.651 1421.44 126.238 1558.91 154.057C1689.47 180.478 1634.69 109.983 1920 140.176V99.4336C1851.58 90.1861 1787.33 85.7442 1726.34 84.538C1665.66 91.6029 1595.65 101.329 1510.4 112.951C1373.95 131.56 1299.58 123.825 1235.71 112.051C1197.76 113.487 1160.06 113.678 1122.37 111.744C839.424 97.2318 847.488 175.826 435.2 114.157C387.712 107.054 342.912 102.573 300.416 99.7973C229.504 120.015 110.016 127.348 0 129.301V163.477C6.08 163.285 12.16 163.036 18.304 162.902C105.984 151.932 218.944 147.586 342.208 167.363Z" fill="#80E6F9"/>
<path d="M300.416 99.7973C179.264 91.8709 78.592 99.4909 0 112.434V129.301C110.016 127.348 229.504 120.015 300.416 99.7973Z" fill="#6ABDCC"/>
<path d="M300.416 99.7974C309.76 97.1361 318.528 94.3216 326.08 91.1817C459.456 35.5628 613.056 135.926 912.192 96.0256C1083.46 73.1845 1150.14 96.2745 1235.71 112.051C1385.54 106.403 1540.67 80.8621 1726.4 84.5381C1802.37 75.7118 1863.55 71.2508 1920 72.8973V50.9561C1831.36 49.1181 1788.61 75.9607 1429.57 82.7384C1136.96 88.2524 1007.1 63.1521 856.832 43.4317C680.96 54.1726 607.168 79.9048 322.048 36.7881C303.936 34.0502 287.104 31.8102 270.272 29.5892C152.256 36.5966 64.064 46.8014 0 57.7338V112.434C78.592 99.4911 179.264 91.871 300.416 99.7974Z" fill="#2F76B6"/>
<path d="M0 12.4918V57.7336C64.064 46.8013 152.256 36.5965 270.272 29.5699C151.36 13.8703 63.552 10.3474 0 12.4918Z" fill="#1F4D8E"/>
<path d="M402.88 23.4816C354.368 24.9941 311.04 27.1385 270.272 29.57C287.104 31.7909 303.936 34.031 322.048 36.7689C607.168 79.8855 680.96 54.1534 856.832 43.4125C743.424 28.5361 618.432 16.7039 402.88 23.4816Z" fill="#1F4D8E"/>
<path d="M1065.79 40.4066C978.944 38.0708 912.832 40.0046 856.832 43.4125C1007.1 63.1329 1136.96 88.2332 1429.57 82.7192C1788.61 75.9606 1831.36 49.118 1920 50.9369V28.7468C1417.02 -45.865 1399.94 49.3861 1065.79 40.4066Z" fill="#1F4D8E"/>
</svg>
