<svg width="1920" height="87" viewBox="0 0 1920 87" fill="none" xmlns="http://www.w3.org/2000/svg">
<path d="M342.208 82.8253C349.504 83.9932 356.352 84.8165 363.456 85.8312C471.168 87.5927 587.072 85.1611 714.112 68.3127C865.792 48.1903 993.088 54.3936 1107.39 66.3024C1143.23 63.0284 1183.17 62.9327 1231.49 70.7251C1389.12 96.1126 1421.44 41.6999 1558.91 69.5189C1689.47 95.9403 1634.69 39.3258 1920 69.5189V14.8955C1851.58 5.64805 1787.33 1.20619 1726.34 0C1665.66 7.06485 1595.65 16.791 1510.4 28.4126C1373.95 47.0224 1299.58 39.2875 1235.71 27.5127C1197.76 28.9487 1160.06 29.1401 1122.37 27.2064C839.424 12.6937 847.488 91.2878 435.2 29.6188C387.712 22.5156 342.912 18.0355 300.416 15.2593C229.504 35.4774 110.016 42.8103 0 44.7632V78.9387C6.08 78.7472 12.16 78.4984 18.304 78.3643C105.984 67.3937 218.944 63.0476 342.208 82.8253Z" fill="#8FEDFF"/>
</svg>
