<svg width="617" height="620" viewBox="0 0 617 620" fill="none" xmlns="http://www.w3.org/2000/svg">
<path d="M111.456 430.02L138.809 626H478.188L505.542 430.02H111.456ZM308.499 544.933C294.425 544.933 283.018 537.105 283.018 527.452C283.018 517.798 294.425 509.97 308.499 509.97C322.572 509.97 333.979 517.796 333.979 527.452C333.979 537.107 322.572 544.933 308.499 544.933ZM566.353 590.439H502.626L527.825 409.901H89.1726L114.372 590.439H50.6444C14.2904 590.439 -10.1986 551.604 4.1785 516.746L94.302 298.254C111.806 255.816 151.822 228.323 196.085 228.323H231.552L287.584 315.376L299.006 258.499L279.887 228.323H337.402L318.28 258.499L329.677 314.977L385.452 228.323H420.92C465.182 228.323 505.199 255.816 522.703 298.254L612.824 516.746C627.196 551.601 602.709 590.439 566.353 590.439ZM308.499 0C363.578 0 408.23 46.6098 408.23 104.105C408.23 161.599 363.578 208.207 308.499 208.207C253.419 208.207 208.768 161.597 208.768 104.102C208.768 46.6072 253.419 0 308.499 0Z" fill="#9AB9C1"/>
</svg>
